<?xml version="1.0"?>
<svg version="1.1" xmlns="http://www.w3.org/2000/svg" width="400px" height="200px" style="border: dashed 2px #aaa"><path fill="#ffffff" d="M80.6,125.75c0,0.9-0.35,1.25-1.2,1.25l-3.95,0c-0.9,0-1.3-0.35-1.3-1.25l0-13.95l-14.2,0l0,13.95c0,0.9-0.4,1.25-1.25,1.25l-3.9,0c-0.9,0-1.35-0.35-1.35-1.25l0-32.15c0-0.85,0.55-1.2,1.35-1.2l3.9,0c0.8,0,1.25,0.3,1.25,1.2l0,13.05l14.2,0l0-13.05c0-0.85,0.5-1.2,1.3-1.2l3.95,0c0.8,0,1.2,0.3,1.2,1.2l0,32.15z M113.175,114.85c0,7.2-4.4,12.75-12.2,12.75c-8.15,0-11.9-5.5-11.9-12.8c0-7.2,4.4-12.7,12.2-12.7c8.15,0,11.9,5.4,11.9,12.75z M106.925,114.85c0-4.1-1.3-8-5.7-8c-4.45,0-5.9,3.85-5.9,7.85c0,4.1,1.25,8.15,5.7,8.15c4.4,0,5.9-3.9,5.9-8z M137.15,119.85c0,5.25-4.55,7.75-9.65,7.75c-2.6,0-5.45-0.75-7.7-1.75c-0.45-0.2-0.6-0.5-0.6-0.8c0-0.15,0.05-0.3,0.1-0.45l0.8-2.55c0.15-0.5,0.4-0.7,0.7-0.7c0.15,0,0.3,0,0.55,0.1c2.2,0.9,4.55,1.55,6.3,1.55c2.2,0,3.7-1,3.7-2.65c0-1.4-0.95-2.15-3-2.95l-3.95-1.5c-2.85-1.05-5.15-3.25-5.15-6.65c0-4.9,4.6-7.15,9.05-7.15c2.4,0,4.75,0.4,7.25,1.5c0.4,0.2,0.6,0.4,0.6,0.7c0,0.15-0.05,0.3-0.1,0.5l-0.85,2.7c-0.1,0.35-0.35,0.55-0.7,0.55c-0.15,0-0.35-0.05-0.5-0.1c-1.65-0.65-3.8-1.2-5.4-1.2c-2.1,0-3.15,1.15-3.15,2.3c0,1.1,0.55,1.8,2.45,2.55l4.5,1.85c2.65,1.1,4.75,3.15,4.75,6.4z M167.525,114.55c0,3.8-1.15,7.25-3.25,9.7c-1.85,2.1-4.45,3.4-7.7,3.4c-2.3,0-4.6-0.85-6.05-2.35l0,11.2c0,1-0.45,1.3-1.3,1.3l-3.5,0c-0.8,0-1.2-0.45-1.2-1.3l0-32.6c0-0.85,0.4-1.15,1.2-1.15l3,0c0.85,0,1.3,0.2,1.35,0.95l0.05,1.35c1.45-1.65,4.3-2.9,7-2.9c3.3,0,5.6,1.25,7.25,3.05c2.15,2.35,3.15,5.85,3.15,9.35z M161.225,114.85c0-2.35-0.45-4.4-1.45-5.8c-0.95-1.35-2.35-2.05-4.1-2.05c-1.85,0-4.15,1.2-5.15,2.45l0,10.9c1,1.35,3,2.45,4.9,2.45c1.75,0,3.15-0.8,4-1.85c1.25-1.55,1.8-3.65,1.8-6.1z M182.1,96.4c0,1.95-1.7,3.15-3.35,3.15s-3.4-1.1-3.4-3.1s1.65-3.2,3.4-3.2c1.7,0,3.35,1.15,3.35,3.15z M181.8,125.75c0,0.9-0.4,1.25-1.25,1.25l-3.5,0c-0.9,0-1.3-0.35-1.3-1.25l0-21.85c0-0.85,0.5-1.15,1.3-1.15l3.5,0c0.8,0,1.25,0.25,1.25,1.15l0,21.85z M214.525,103.3c0,7.75-5.85,11.55-13.2,11.55c-0.4,0-2.65-0.1-3-0.15l0,11.1c0,0.75-0.3,1.2-1.25,1.2l-4,0c-0.8,0-1.2-0.35-1.2-1.35l0-31.9c0-1,0.3-1.35,1.25-1.35l7.25,0c5.3,0,9.2,1,11.65,3.8c1.6,1.85,2.5,4.4,2.5,7.1z M208.025,103.55c0-4.55-2.8-6.15-7.1-6.15l-2.6,0l0,12.4c0.4,0,2.65,0.05,2.95,0.05c4.25,0,6.75-2,6.75-6.3z M235.85,102.95c0,0.15,0,0.3-0.05,0.45l-0.55,3.55c-0.05,0.45-0.3,0.65-0.7,0.65l-0.2,0c-0.4-0.1-0.9-0.15-1.35-0.15c-1.7,0-3.55,0.9-4.8,2.4l0,15.9c0,0.8-0.35,1.25-1.2,1.25l-3.65,0c-0.8,0-1.2-0.4-1.2-1.25l0-15.6l0-6.15c0-1,0.5-1.25,1.25-1.25l3.2,0c0.8,0,1.25,0.25,1.25,0.95l0.05,1.6c1.55-1.95,3.25-3.2,6.05-3.2c0.4,0,0.95,0.1,1.4,0.2c0.35,0.1,0.5,0.25,0.5,0.65z M265.025,114.85c0,7.2-4.4,12.75-12.2,12.75c-8.15,0-11.9-5.5-11.9-12.8c0-7.2,4.4-12.7,12.2-12.7c8.15,0,11.9,5.4,11.9,12.75z M258.775,114.85c0-4.1-1.3-8-5.7-8c-4.45,0-5.9,3.85-5.9,7.85c0,4.1,1.25,8.15,5.7,8.15c4.4,0,5.9-3.9,5.9-8z"/><path fill="#305670" d=""/></svg>
